<?xml version="1.0" encoding="UTF-8" standalone="no"?>
<!-- Created with Inkscape (http://www.inkscape.org/) -->

<svg
   width="423.27698"
   height="382.65125"
   viewBox="0 0 111.99203 101.24314"
   version="1.1"
   id="svg5"
   sodipodi:docname="unicycle.svg"
   inkscape:version="1.2.1 (9c6d41e410, 2022-07-14)"
   inkscape:export-filename="unicycle.png"
   inkscape:export-xdpi="96"
   inkscape:export-ydpi="96"
   xmlns:inkscape="http://www.inkscape.org/namespaces/inkscape"
   xmlns:sodipodi="http://sodipodi.sourceforge.net/DTD/sodipodi-0.dtd"
   xmlns="http://www.w3.org/2000/svg"
   xmlns:svg="http://www.w3.org/2000/svg">
  <sodipodi:namedview
     id="namedview7"
     pagecolor="#ffffff"
     bordercolor="#000000"
     borderopacity="0.25"
     inkscape:showpageshadow="2"
     inkscape:pageopacity="0.0"
     inkscape:pagecheckerboard="0"
     inkscape:deskcolor="#d1d1d1"
     inkscape:document-units="px"
     showgrid="false"
     inkscape:zoom="1.4770342"
     inkscape:cx="188.21501"
     inkscape:cy="146.91603"
     inkscape:window-width="1920"
     inkscape:window-height="1009"
     inkscape:window-x="-8"
     inkscape:window-y="-8"
     inkscape:window-maximized="1"
     inkscape:current-layer="layer1" />
  <defs
     id="defs2">
    <marker
       style="overflow:visible"
       id="Arrow1L"
       refX="0"
       refY="0"
       orient="auto-start-reverse"
       inkscape:stockid="Arrow1L"
       markerWidth="14.75"
       markerHeight="8.4285717"
       viewBox="0 0 8.75 5"
       inkscape:isstock="true"
       inkscape:collect="always"
       preserveAspectRatio="xMidYMid"
       markerUnits="strokeWidth">
      <path
         style="fill:context-stroke;fill-rule:evenodd;stroke:none"
         d="M 0,0 5,-5 -12.5,0 5,5 Z"
         id="arrow1L"
         transform="scale(-0.5)" />
    </marker>
    <marker
       style="overflow:visible"
       id="Arrow5"
       refX="0"
       refY="0"
       orient="auto-start-reverse"
       inkscape:stockid="Arrow5"
       markerWidth="5.8874259"
       markerHeight="6.6094756"
       viewBox="0 0 5.8874262 6.6094758"
       inkscape:isstock="true"
       inkscape:collect="always"
       preserveAspectRatio="xMidYMid">
      <path
         transform="scale(0.5)"
         style="fill:context-stroke;fill-rule:evenodd;stroke:context-stroke;stroke-width:1pt"
         d="m 6,0 c -3,1 -7,3 -9,5 0,0 0,-4 2,-5 -2,-1 -2,-5 -2,-5 2,2 6,4 9,5 z"
         id="path8893" />
    </marker>
    <marker
       style="overflow:visible"
       id="Arrow5-0"
       refX="0"
       refY="0"
       orient="auto-start-reverse"
       inkscape:stockid="Arrow5"
       markerWidth="5.8874264"
       markerHeight="6.6094756"
       viewBox="0 0 5.8874262 6.6094758"
       inkscape:isstock="true"
       inkscape:collect="always"
       preserveAspectRatio="xMidYMid">
      <path
         transform="scale(0.5)"
         style="fill:context-stroke;fill-rule:evenodd;stroke:context-stroke;stroke-width:1pt"
         d="m 6,0 c -3,1 -7,3 -9,5 0,0 0,-4 2,-5 -2,-1 -2,-5 -2,-5 2,2 6,4 9,5 z"
         id="path8893-7" />
    </marker>
    <clipPath
       id="clipPath486">
      <path
         clip-rule="nonzero"
         d="M 0,0 H 13 V 10.671875 H 0 Z m 0,0"
         id="path8397" />
    </clipPath>
    <clipPath
       id="clipPath6760">
      <path
         clip-rule="nonzero"
         d="M 0,0 H 12 V 15.492188 H 0 Z m 0,0"
         id="path7689" />
    </clipPath>
    <clipPath
       id="clipPath1513">
      <path
         clip-rule="nonzero"
         d="M 0,0 H 11 V 17.214844 H 0 Z m 0,0"
         id="path420" />
    </clipPath>
    <clipPath
       id="clipPath9686">
      <path
         clip-rule="nonzero"
         d="M 0,0 H 12 V 10.671875 H 0 Z m 0,0"
         id="path9636" />
    </clipPath>
    <clipPath
       id="clipPath3321">
      <path
         clip-rule="nonzero"
         d="M 0,0 H 12 V 10.671875 H 0 Z m 0,0"
         id="path1952" />
    </clipPath>
    <clipPath
       id="clipPath5589">
      <path
         clip-rule="nonzero"
         d="M 0,0 H 15 V 10.671875 H 0 Z m 0,0"
         id="path8718" />
    </clipPath>
  </defs>
  <g
     inkscape:label="Layer 1"
     inkscape:groupmode="layer"
     id="layer1"
     transform="translate(-8.90237, -16.5502)">
    <rect
       style="fill:none;stroke:#000000;stroke-width:0.352777;stroke-linejoin:round;stroke-miterlimit:10;stop-color:#000000"
       id="rect234"
       width="39.6875"
       height="7.9375"
       x="0.19248296"
       y="88.608444"
       ry="0.9094348"
       transform="rotate(-45)" />
    <path
       style="fill:none;stroke:#000000;stroke-width:0.79375;stroke-linejoin:round;stroke-miterlimit:10;stroke-dasharray:none;marker-end:url(#Arrow5-0);stop-color:#000000"
       d="M 80.077666,51.000121 93.757494,37.320292"
       id="path528-0" />
    <text
       xml:space="preserve"
       style="font-size:6.35px;line-height:normal;font-family:sans-serif;-inkscape-font-specification:sans-serif;text-align:center;text-decoration-color:#000000;text-anchor:middle;fill:#000000;fill-opacity:1;stroke:none;stroke-width:0.79375;stroke-linejoin:round;stroke-miterlimit:10;stroke-dasharray:none;stop-color:#000000"
       x="100.39888"
       y="27.033974"
       id="text1485"><tspan
         sodipodi:role="line"
         id="tspan1483"
         style="fill:#000000;fill-opacity:1;stroke:none;stroke-width:0.79375"
         x="100.39888"
         y="27.033974">action[0]</tspan></text>
    <text
       xml:space="preserve"
       style="font-size:6.35px;line-height:normal;font-family:sans-serif;-inkscape-font-specification:sans-serif;text-align:center;text-decoration-color:#000000;text-anchor:middle;fill:#000000;fill-opacity:1;stroke:none;stroke-width:0.79375;stroke-linejoin:round;stroke-miterlimit:10;stroke-dasharray:none;stop-color:#000000"
       x="22.110489"
       y="80.256203"
       id="text1485-0"
       transform="rotate(-45)"><tspan
         sodipodi:role="line"
         id="tspan1483-9"
         style="fill:#000000;fill-opacity:1;stroke:none;stroke-width:0.79375"
         x="22.110489"
         y="80.256203">action[1]</tspan></text>
    <text
       xml:space="preserve"
       style="font-size:6.35px;line-height:normal;font-family:sans-serif;-inkscape-font-specification:sans-serif;font-variation-settings:normal;text-align:center;text-decoration-color:#000000;text-anchor:middle;fill:none;fill-opacity:1;stroke:#969696;stroke-width:0.396875;stroke-linecap:butt;stroke-linejoin:round;stroke-miterlimit:10;stroke-dasharray:1.5875, 1.5875;stroke-dashoffset:0;stroke-opacity:1;stop-color:#000000"
       x="78.853859"
       y="116.57796"
       id="text4783"><tspan
         sodipodi:role="line"
         id="tspan4781"
         style="fill:#000000;fill-opacity:1;stroke:none;stroke-width:0.396875"
         x="78.853859"
         y="116.57796">state[0]</tspan></text>
    <text
       xml:space="preserve"
       style="font-size:6.35px;line-height:normal;font-family:sans-serif;-inkscape-font-specification:sans-serif;font-variation-settings:normal;text-align:center;text-decoration-color:#000000;text-anchor:middle;fill:none;fill-opacity:1;stroke:#969696;stroke-width:0.396875;stroke-linecap:butt;stroke-linejoin:round;stroke-miterlimit:10;stroke-dasharray:1.5875, 1.5875;stroke-dashoffset:0;stroke-opacity:1;stop-color:#000000"
       x="-49.046253"
       y="13.726878"
       id="text4783-0"
       transform="rotate(-90)"><tspan
         sodipodi:role="line"
         id="tspan4781-6"
         style="fill:#000000;fill-opacity:1;stroke:none;stroke-width:0.396875"
         x="-49.046253"
         y="13.726878">state[1]</tspan></text>
    <text
       xml:space="preserve"
       style="font-size:6.35px;line-height:normal;font-family:sans-serif;-inkscape-font-specification:sans-serif;font-variation-settings:normal;text-align:center;text-decoration-color:#000000;text-anchor:middle;fill:none;fill-opacity:1;stroke:#969696;stroke-width:0.396875;stroke-linecap:butt;stroke-linejoin:round;stroke-miterlimit:10;stroke-dasharray:1.5875, 1.5875;stroke-dashoffset:0;stroke-opacity:1;stop-color:#000000"
       x="107.5494"
       y="51.593197"
       id="text4783-0-5"><tspan
         sodipodi:role="line"
         id="tspan4781-6-1"
         style="fill:#000000;fill-opacity:1;stroke:none;stroke-width:0.396875"
         x="107.5494"
         y="51.593197">state[2]</tspan></text>
    <path
       style="fill:none;fill-opacity:1;stroke:#000000;stroke-width:0.396875;stroke-linejoin:round;stroke-miterlimit:10;stroke-dasharray:none;stroke-opacity:1;marker-end:url(#Arrow1L);stop-color:#000000"
       d="M 22.570567,103.17973 V 27.754459"
       id="path1605"
       sodipodi:nodetypes="cc" />
    <path
       style="fill:none;fill-opacity:1;stroke:#000000;stroke-width:0.407215;stroke-linejoin:round;stroke-miterlimit:10;stroke-dasharray:none;stroke-opacity:1;marker-end:url(#Arrow1L);stop-color:#000000"
       d="M 22.399663,103.16329 H 116.6041"
       id="path2007"
       sodipodi:nodetypes="cc" />
    <path
       style="font-variation-settings:normal;fill:none;fill-opacity:1;stroke:#969696;stroke-width:0.396875;stroke-linecap:butt;stroke-linejoin:round;stroke-miterlimit:10;stroke-dasharray:1.5875, 1.5875;stroke-dashoffset:0;stroke-opacity:1;stop-color:#000000"
       d="M 79.799004,51.489358 V 103.10538"
       id="path2069"
       sodipodi:nodetypes="cc" />
    <path
       style="fill:none;fill-opacity:1;stroke:#969696;stroke-width:0.396875;stroke-linejoin:round;stroke-miterlimit:10;stroke-dasharray:1.5875, 1.5875;stroke-dashoffset:0;stroke-opacity:1;stop-color:#000000"
       d="M 88.412229,51.299359 H 22.293055"
       id="path2077"
       sodipodi:nodetypes="cc" />
    <g
       inkscape:label=""
       transform="translate(34.930276,105.31395)"
       id="g2537">
      <g
         clip-path="url(#clipPath486)"
         id="g17"
         transform="matrix(0.352778,0,0,0.352778,42.570264,0.34148057)">
        <g
           fill="#000000"
           fill-opacity="1"
           id="g15">
          <g
             id="use13"
             transform="translate(0,10.672)">
            <path
               d="m 11.75,-10.109375 c -0.796875,0.140625 -1.09375,0.734375 -1.09375,1.21875 0,0.59375 0.46875,0.78125 0.8125,0.78125 0.75,0 1.265625,-0.640625 1.265625,-1.3125 0,-1.03125 -1.1875,-1.5 -2.234375,-1.5 -1.5,0 -2.34375,1.484375 -2.5625,1.953125 -0.578125,-1.859375 -2.109375,-1.953125 -2.5625,-1.953125 -2.53125,0 -3.859375,3.234375 -3.859375,3.78125 0,0.109375 0.09375,0.234375 0.265625,0.234375 0.203125,0 0.25,-0.15625 0.296875,-0.25 0.84375,-2.75 2.5,-3.28125 3.21875,-3.28125 1.125,0 1.34375,1.046875 1.34375,1.640625 C 6.640625,-8.25 6.5,-7.6875 6.1875,-6.5 l -0.828125,3.40625 c -0.375,1.484375 -1.09375,2.84375 -2.40625,2.84375 -0.125,0 -0.75,0 -1.265625,-0.3125 0.890625,-0.1875 1.09375,-0.921875 1.09375,-1.21875 0,-0.5 -0.375,-0.796875 -0.84375,-0.796875 -0.59375,0 -1.25,0.515625 -1.25,1.3125 0,1.046875 1.171875,1.515625 2.234375,1.515625 1.1875,0 2.03125,-0.9375 2.5625,-1.953125 C 5.875,-0.25 7.109375,0.25 8.03125,0.25 c 2.53125,0 3.859375,-3.25 3.859375,-3.796875 0,-0.125 -0.09375,-0.21875 -0.25,-0.21875 -0.21875,0 -0.234375,0.125 -0.3125,0.328125 -0.671875,2.171875 -2.109375,3.1875 -3.21875,3.1875 -0.875,0 -1.34375,-0.640625 -1.34375,-1.65625 0,-0.546875 0.09375,-0.9375 0.5,-2.578125 L 8.125,-7.859375 C 8.5,-9.34375 9.34375,-10.4375 10.484375,-10.4375 c 0.04687,0 0.734375,0 1.265625,0.328125 z m 0,0"
               id="path23" />
          </g>
        </g>
      </g>
    </g>
    <g
       inkscape:label=""
       transform="translate(16.23951,18.889644)"
       id="g3404">
      <g
         clip-path="url(#clipPath6760)"
         id="g3402"
         transform="matrix(0.352778,0,0,0.352778,0.26963734,29.72778)">
        <g
           fill="#000000"
           fill-opacity="1"
           id="g3400">
          <g
             id="g3398"
             transform="translate(0,10.672)">
            <path
               d="M 6.515625,2.78125 C 5.84375,3.71875 4.875,4.5625 3.671875,4.5625 3.375,4.5625 2.1875,4.515625 1.8125,3.375 1.890625,3.390625 2,3.390625 2.0625,3.390625 2.796875,3.390625 3.296875,2.75 3.296875,2.1875 3.296875,1.609375 2.828125,1.40625 2.453125,1.40625 2.0625,1.40625 1.1875,1.703125 1.1875,2.921875 1.1875,4.1875 2.25,5.0625 3.671875,5.0625 c 2.46875,0 4.984375,-2.28125 5.671875,-5.03125 l 2.421875,-9.671875 c 0.03125,-0.125 0.07813,-0.265625 0.07813,-0.421875 0,-0.375 -0.296875,-0.625 -0.671875,-0.625 -0.21875,0 -0.734375,0.109375 -0.9375,0.84375 l -1.82813,7.296875 c -0.125,0.4375 -0.125,0.484375 -0.328125,0.765625 -0.5,0.6875 -1.3125,1.53125 -2.5,1.53125 C 4.1875,-0.25 4.0625,-1.609375 4.0625,-2.28125 c 0,-1.40625 0.671875,-3.3125 1.34375,-5.109375 0.265625,-0.71875 0.421875,-1.0625 0.421875,-1.5625 0,-1.03125 -0.75,-1.96875 -1.96875,-1.96875 -2.265625,0 -3.1875,3.59375 -3.1875,3.78125 0,0.109375 0.09375,0.234375 0.265625,0.234375 0.234375,0 0.25,-0.109375 0.34375,-0.453125 0.609375,-2.078125 1.546875,-3.078125 2.515625,-3.078125 0.21875,0 0.640625,0 0.640625,0.828125 0,0.640625 -0.28125,1.359375 -0.640625,2.296875 -1.21875,3.25 -1.21875,4.0625 -1.21875,4.65625 0,2.359375 1.6875,2.90625 2.921875,2.90625 0.71875,0 1.609375,-0.21875 2.484375,-1.140625 L 8,-0.875 C 7.625,0.59375 7.390625,1.5625 6.515625,2.78125 Z m 0,0"
               id="path3396" />
          </g>
        </g>
      </g>
    </g>
    <circle
       style="fill:#000000;fill-opacity:1;stroke:none;stroke-width:0.396875;stroke-linejoin:round;stroke-miterlimit:10;stroke-dasharray:none;stroke-opacity:1;stop-color:#000000"
       id="path2063"
       cx="79.767044"
       cy="51.36665"
       r="0.66145831" />
    <g
       inkscape:label=""
       transform="translate(89.343914,46.408624)"
       id="g5295">
      <g
         clip-path="url(#clipPath1513)"
         id="g5293"
         transform="matrix(0.352778,0,0,0.352778,-0.347266,0.084711)">
        <g
           fill="#000000"
           fill-opacity="1"
           id="g5291">
          <g
             id="g5289"
             transform="translate(0,17.212999)">
            <path
               d="m 10.984375,-12.46875 c 0,-2.53125 -0.796875,-4.984375 -2.828125,-4.984375 -3.46875,0 -7.171875,7.265625 -7.171875,12.71875 0,1.140625 0.25,4.984375 2.859375,4.984375 3.375,0 7.140625,-7.09375 7.140625,-12.71875 z m -7.515625,3.5 c 0.375,-1.46875 0.890625,-3.546875 1.890625,-5.3125 0.8125,-1.484375 1.671875,-2.671875 2.765625,-2.671875 0.828125,0 1.359375,0.703125 1.359375,3.078125 0,0.890625 -0.0625,2.125 -0.78125,4.90625 z m 5.0625,0.734375 c -0.625,2.4375 -1.140625,4 -2.03125,5.5625 C 5.78125,-1.40625 4.90625,-0.25 3.859375,-0.25 c -0.765625,0 -1.375,-0.59375 -1.375,-3.046875 0,-1.609375 0.390625,-3.296875 0.78125,-4.9375 z m 0,0"
               id="path5287" />
          </g>
        </g>
      </g>
    </g>
    <path
       style="font-variation-settings:normal;fill:none;fill-opacity:1;stroke:#000000;stroke-width:0.396875;stroke-linecap:butt;stroke-linejoin:round;stroke-miterlimit:10;stroke-dasharray:none;stroke-dashoffset:0;stroke-opacity:1;stop-color:#000000"
       id="path6467"
       sodipodi:type="arc"
       sodipodi:cx="79.925667"
       sodipodi:cy="51.046028"
       sodipodi:rx="4.813273"
       sodipodi:ry="4.813273"
       sodipodi:start="5.4977871"
       sodipodi:end="0.054693601"
       sodipodi:arc-type="arc"
       d="m 83.329165,47.64253 a 4.813273,4.813273 0 0 1 1.402577,3.666622"
       sodipodi:open="true" />
    <path
       style="font-variation-settings:normal;opacity:1;vector-effect:none;fill:none;fill-opacity:1;stroke:#000000;stroke-width:0.79375;stroke-linecap:butt;stroke-linejoin:round;stroke-miterlimit:10;stroke-dasharray:none;stroke-dashoffset:0;stroke-opacity:1;-inkscape-stroke:none;marker-start:url(#Arrow5);stop-color:#000000;stop-opacity:1"
       id="path6467-7"
       sodipodi:type="arc"
       sodipodi:cx="79.750648"
       sodipodi:cy="50.991379"
       sodipodi:rx="3.1666269"
       sodipodi:ry="3.1666269"
       sodipodi:start="2.5078045"
       sodipodi:end="0.054693601"
       sodipodi:arc-type="arc"
       d="m 77.199012,52.86666 a 3.1666269,3.1666269 0 0 1 0.0172,-3.773743 3.1666269,3.1666269 0 0 1 3.616691,-1.077484 3.1666269,3.1666269 0 0 1 2.079637,3.149054"
       sodipodi:open="true" />
    <g
       inkscape:label=""
       transform="translate(95.034644,29.596683)"
       id="g5904">
      <g
         clip-path="url(#clipPath3321)"
         id="g5902"
         transform="matrix(0.352778,0,0,0.352778,-0.237023,0.0881504)">
        <g
           fill="#000000"
           fill-opacity="1"
           id="g5900">
          <g
             id="g5898"
             transform="translate(0,10.672)">
            <path
               d="m 11.328125,-9.265625 c 0,-1.5625 -0.796875,-1.65625 -1,-1.65625 -0.59375,0 -1.140625,0.59375 -1.140625,1.078125 0,0.296875 0.1875,0.46875 0.28125,0.578125 0.25,0.21875 0.890625,0.890625 0.890625,2.171875 0,1.046875 -1.484375,6.84375 -4.46875,6.84375 -1.5,0 -1.796875,-1.265625 -1.796875,-2.171875 0,-1.25 0.5625,-2.984375 1.234375,-4.765625 0.390625,-1.015625 0.5,-1.265625 0.5,-1.765625 0,-1.03125 -0.75,-1.96875 -1.96875,-1.96875 -2.265625,0 -3.1875,3.59375 -3.1875,3.78125 0,0.109375 0.09375,0.234375 0.265625,0.234375 0.234375,0 0.25,-0.109375 0.34375,-0.453125 0.609375,-2.125 1.5625,-3.078125 2.515625,-3.078125 0.21875,0 0.640625,0 0.640625,0.828125 0,0.640625 -0.28125,1.359375 -0.640625,2.296875 -1.1875,3.171875 -1.1875,3.9375 -1.1875,4.53125 0,0.546875 0.0625,1.5625 0.828125,2.265625 C 4.34375,0.25 5.578125,0.25 5.796875,0.25 c 4.109375,0 5.53125,-8.109375 5.53125,-9.515625 z m 0,0"
               id="path5896" />
          </g>
        </g>
      </g>
    </g>
    <g
       inkscape:label=""
       transform="rotate(-45,89.725474,-65.495284)"
       id="g6059">
      <g
         clip-path="url(#clipPath5589)"
         id="g6057"
         transform="matrix(0.352778,0,0,0.352778,-0.104731,0.0991747)">
        <g
           fill="#000000"
           fill-opacity="1"
           id="g6055">
          <g
             id="g6053"
             transform="translate(0,10.672)">
            <path
               d="m 14.71875,-9.3125 c 0,-0.71875 -0.203125,-1.640625 -1.0625,-1.640625 -0.5,0 -1.0625,0.625 -1.0625,1.109375 0,0.234375 0.09375,0.375 0.296875,0.59375 0.375,0.421875 0.84375,1.09375 0.84375,2.265625 0,0.890625 -0.546875,2.296875 -0.953125,3.0625 -0.6875,1.375 -1.828125,2.53125 -3.109375,2.53125 -1.5625,0 -2.15625,-0.984375 -2.4375,-2.375 0.28125,-0.640625 0.84375,-2.25 0.84375,-2.90625 0,-0.265625 -0.09375,-0.484375 -0.421875,-0.484375 -0.171875,0 -0.375,0.09375 -0.5,0.296875 -0.34375,0.546875 -0.65625,2.5 -0.640625,3.015625 -0.46875,0.921875 -1.8125,2.453125 -3.390625,2.453125 -1.65625,0 -2.109375,-1.453125 -2.109375,-2.875 0,-2.578125 1.609375,-4.828125 2.0625,-5.453125 0.25,-0.375 0.421875,-0.609375 0.421875,-0.671875 0,-0.171875 -0.109375,-0.4375 -0.328125,-0.4375 -0.390625,0 -0.515625,0.328125 -0.71875,0.625 C 1.1875,-8.25 0.296875,-5.5 0.296875,-3.125 c 0,1.53125 0.578125,3.375 2.421875,3.375 2.0625,0 3.359375,-1.765625 3.875,-2.703125 C 6.796875,-1.0625 7.53125,0.25 9.34375,0.25 c 1.875,0 3.078125,-1.65625 3.96875,-3.671875 0.640625,-1.4375 1.40625,-4.53125 1.40625,-5.890625 z m 0,0"
               id="path6051" />
          </g>
        </g>
      </g>
    </g>
  </g>
</svg>
